<?xml version="1.0" standalone="no"?>
<!DOCTYPE svg PUBLIC "-//W3C//DTD SVG 20010904//EN"
 "http://www.w3.org/TR/2001/REC-SVG-20010904/DTD/svg10.dtd">
<svg version="1.0" xmlns="http://www.w3.org/2000/svg"
 width="180.000000pt" height="180.000000pt" viewBox="0 0 180.000000 180.000000"
 preserveAspectRatio="xMidYMid meet">

<g transform="translate(0.000000,180.000000) scale(0.100000,-0.100000)"
fill="#b8272e" stroke="none">
<path d="M629 1616 c-277 -143 -249 -116 -249 -244 0 -111 7 -132 41 -132 9 0
103 34 210 75 l192 75 126 -40 c68 -23 131 -38 138 -36 18 7 19 269 1 284 -11
8 -67 34 -223 102 l-41 17 -195 -101z"/>
<path d="M1180 1531 c-11 -21 -14 -201 -4 -238 5 -18 46 -35 265 -108 142 -48
263 -84 269 -80 6 4 10 49 10 111 0 99 -1 105 -22 113 -13 5 -48 20 -78 34
-121 55 -420 187 -424 187 -3 0 -10 -9 -16 -19z"/>
<path d="M170 1378 c-109 -60 -100 -47 -100 -152 0 -125 4 -128 112 -86 46 18
86 37 90 44 4 6 8 52 8 103 0 70 -4 95 -16 107 -21 22 -30 20 -94 -16z"/>
<path d="M722 1251 c-51 -20 -97 -43 -102 -51 -6 -8 -10 -66 -10 -127 0 -98 3
-116 19 -132 19 -19 21 -19 93 0 40 10 87 19 103 19 17 0 143 -25 280 -55 232
-51 251 -54 263 -38 8 11 12 53 12 118 0 66 -4 107 -12 117 -11 13 -531 191
-548 187 -3 0 -47 -17 -98 -38z"/>
<path d="M270 1071 l-195 -78 -3 -96 c-2 -85 -1 -97 16 -106 14 -7 67 3 207
39 104 27 195 52 202 54 10 4 13 36 13 130 0 104 -3 125 -16 130 -22 9 -11 12
-224 -73z"/>
<path d="M1462 1072 c-17 -5 -17 -226 1 -239 6 -5 63 -22 126 -37 91 -21 116
-24 123 -14 13 22 10 204 -4 216 -19 15 -231 79 -246 74z"/>
<path d="M616 814 c-113 -28 -213 -55 -221 -58 -13 -5 -15 -27 -13 -133 l3
-128 60 0 c33 0 116 7 185 15 69 8 174 13 235 11 61 -2 137 -4 170 -5 l60 -1
3 143 c3 140 2 142 -20 152 -20 8 -82 22 -219 50 -28 5 -84 -5 -243 -46z"/>
<path d="M1181 771 c-12 -21 -15 -210 -5 -249 4 -12 16 -24 28 -26 73 -15 486
-58 499 -53 14 5 17 23 17 115 0 76 -4 113 -12 119 -7 6 -121 32 -253 58 -132
26 -245 50 -252 52 -6 3 -16 -5 -22 -16z"/>
<path d="M165 698 c-38 -11 -76 -25 -82 -30 -9 -7 -13 -41 -13 -104 0 -80 3
-95 18 -103 22 -12 158 4 178 20 21 17 19 202 -2 223 -8 9 -18 15 -22 15 -4
-1 -38 -10 -77 -21z"/>
<path d="M689 421 c-76 -11 -79 -16 -79 -153 0 -66 5 -128 10 -139 10 -18 25
-19 379 -19 327 0 370 2 375 16 12 31 7 230 -6 246 -9 11 -39 18 -98 22 -47 3
-152 13 -235 21 -155 15 -266 17 -346 6z"/>
<path d="M410 389 c-36 -3 -117 -12 -180 -18 -171 -18 -161 -9 -158 -143 l3
-113 215 0 215 0 3 132 c3 155 4 153 -98 142z"/>
<path d="M1455 358 c-3 -8 -4 -66 -3 -129 l3 -114 130 0 130 0 3 113 c3 134
12 126 -151 137 -88 6 -108 5 -112 -7z"/>
</g>
</svg>
